<?xml version="1.0" encoding="utf-8"?>
<!-- Generator: Adobe Illustrator 16.0.0, SVG Export Plug-In . SVG Version: 6.00 Build 0)  -->
<!DOCTYPE svg PUBLIC "-//W3C//DTD SVG 1.1//EN" "http://www.w3.org/Graphics/SVG/1.1/DTD/svg11.dtd">
<svg version="1.1" id="Layer_2" xmlns="http://www.w3.org/2000/svg" xmlns:xlink="http://www.w3.org/1999/xlink" x="0px" y="0px"
	 width="225.4px" height="181.6px" viewBox="0 0 225.4 181.6" enable-background="new 0 0 225.4 181.6" xml:space="preserve">
<g id="shadow">
	<path fill="#070708" d="M69.1,26.4c0,0-0.4,0.5,1,0s1.6-2.5,2.4-1.1s0,2.2,0.9,2s0.1-1.4,1.6,0s5.2,2.3,3.9,3s-3.2-0.8-2.8,0.6
		s1.9,2.2,2.2,3s0.2,1.5-0.9,1.2s-2.1,0.4-2,1.5s-0.5,1.2-1.4,1.8s-3.2,2.9-2,2.9s3.8,1.2,5.2,2.4s4,0.9,4.8,1.6s2.2,2.4,4.4,1.6
		s9.2-7,10-7.8s1.8-2.9,1.8-1.2s-0.8,3.1-1.4,3.8s-3.1,2.1-3.1,3.8s-1,3.8,0.1,3.5s4.5-1.8,5.9-2.4s3-1.9,2.2-2.2s-2-0.1-1.1-1.4
		s3.4-5.3,4.4-6s1.2-2.2,2.1-1s0.2,2.2,1.4,3.4s1.6,3,2.6,3.6s5,0.9,6.5,0.5s5.8-1.1,6.8-2.4s1.2-4.1,2-3.1s2.1,0.6,2.9,1.8
		s0.4,3,1.5,3.2s2.9,0.9,1.6,1.2s-4.9-1.4-4.4-0.9s4.2,3.5,1.8,2.6s-5.8-2.1-5.5-1.5s2.2,1,2.8,2.2s4.4,2.8,4.1,1.8
		s-0.5-2.2,0.6-2.6s3.9-2.8,4.1-2s0.5,0.1,1.6-0.9s2.1-4.5,2.9-3.8s2.8,0.8,3.6,0.1s-0.1-0.2-0.4-2.4s2.1-2.3-0.5-3.6
		s-5.9-3.1-11.5-3.6s-13.8-1.2-19.2-1.9s-8.8-0.6-9.8-1.2s-1.1-0.9-2.6-0.2s-3,1.3-1.9-1.5s1.2-4.2,2.9-4.3s7.5-2.4,9.1-3.8
		s2.5-3.6,2.8-2.1s-0.5,2.1,1.2,1.4s2.2-2.1,3.5-1.1s3.2,1.1,4.1,0.4s1.1-2.1,2-1.1s3.5-0.1,3.5,1.1s0.6,1.8,1.8,1.4
		s5.4-0.5,4.2-0.2s-2.5,1.2-0.1,1.2s4.4,0.6,8.1-0.2s5.6-1.6,7.4-2.4s3.5-1.4,1.8-1.2s-4.6,1.8-5.9,0.6s-4.4-2.6-4.9-2.4
		s1.9,1.2,0.8,1.5s-4.2,0.2-5.1-0.2s-0.8,1-2.6,0.8s-6.1-2.4-8.1-2.8s-4.6-2.1-1-1.5s6,1,6.5,0.6s0.4-1-1.9-1.4s-5.6-0.8-4.4-1.1
		s2.2-1.4,0.6-1.5s-3.8-1.1-3.1,0s1.2,1-1.5,0.5s-3.6-1.6-1.2-1.9s6-0.2,4-1.1s-21,2.4-22.5,3s1.9,1.2,0.9,1.6s-4.8,1.9-5.5,1.9
		s-1.1,3.4-2.5,2.4s-5.6-1.5-4.4-0.6s2.1,1.6-0.8,1.6s-6.4,2-7.2,3.2s-1.9,2.1-3.2,2.1s-3.9,1.6-3.1,2.4s4,0,0.8,0.8
		S67.8,25,69.1,26.4z"/>
	<path fill="#070708" d="M58.6,122.8c0.3,0.5,1.9,0.8,2.4,1s1.2-0.2,1.9,0.3s0.6,0.7,2,1.7s1.1,0.8,1.6,1.8s-2.9-0.6-3.2-1
		s-1.2-0.1-1.6-0.8s-1.4-1.2-1.8-1.8s-1.2-0.2-1.8-0.6s-0.7-0.7-0.9-1C56.2,121.5,58.2,122.3,58.6,122.8z M67.2,125.6
		c0,0,3.3,0.5,3,0s-1.1-2.1-1.5-1.6S66.7,125,67.2,125.6z M71.4,125.8c0.2,0.3,1.3,0,1.9,0.5s4.3,1.3,4.9,0.6s2.7-1.9,3.8-2.5
		s0.5-1.3,1.1-2.4s4.5-1.7,5.2-2.2s6.1-0.7,7.9-0.8s2.2,0.4,1.5,1s-2.6,1.1-1.8,1.5s2.2,0,3.8-0.6s3.2-0.4,2.8-1.9s-1.6-0.1-2-0.5
		s-1.2-2.2-1.8-1.6s0.9,0.9-1.2-0.1s-4-3.5-5.8-3.7s-6.4,0.2-9,1.4s-4.5,2.1-5.8,3.8s-2.8,2.5-2.6,3.6s0.1,2.7,1.6,1.9
		s2.9-1.2,2.3-0.4s-0.4,1.1-1.7,1.5S70.2,124.3,71.4,125.8z"/>
	<path fill="#070708" d="M61.2,163c0,0,3.6,0.5,4.5,0s1.9-2.1,2.2-0.9s3.2,1.7,3.3,1.1s-1.2-1,0-1.6s4.6-1.5,5.5-0.5s2.9,2.1,3.9,1
		s2-2.3,2.4-1.4s6.5,1.9,9,1.2s5.5-0.7,7.5-1.6s6.8-3,9.9-3.2s11.5,1.1,13.5,0s5.2-0.9,6.2-1.6s2.4-1.2,0.8-2.2s-10.5-0.5-12.1-1.4
		s-5-0.5-7.4-1s-9.1-0.5-9.8,0s-3.4,3.4-5.9,3.1s-4.5-0.2-5.8,0.5s-2.6-0.4-3.5,0.6s-2.8,1.4-3.6,1.9s-3,0.9-3.6,0s-2,0.3-2.8-0.6
		s-4.5-2.8-6.1-1.4s-4,3.1-4.1,3.6s-1.9,1.1-2.4,1.4S59.2,162.1,61.2,163z"/>
	<path fill="#070708" d="M79.1,177.3c0,0,0.2,1.5,3.5,1.9s3.5-0.6,4.3,0s8.7,0.9,10.1,0.9s2,0.2,2.6,0.9s2.2,0.9,4.2,0.6
		s8.4-0.2,11.6-2.1s4-3.2,6.1-4.3s4.5-1.9,4.4-2.5s1-2.1-0.5-1.9s-2.6,1.8-3.9,1s-1.9-5.1-1.8-5.9s0.6-1.5-1.1-0.6s-3.8,2-4.8,1.5
		s-1.6-1.4-0.4-1.9s1-2.7,0.5-1.4s-2.1,1.1-2.5,2.3s-1.9,2.6-2.2,1.6s-2.5-2.9-2-1.9s1.1,5.4,0.1,4.5s-2-1.5-2.2-0.4
		s-1.5,2.6-0.8,2.7s1.1,1.1,0.2,1.3s-3,1.6-3.8,2.2s-2.9,1.5-3.9,1.4s-6,0.9-6.8,0.4s-1.4,0.4-2.2,0.1s-2-0.6-3.5-0.9
		s-3.2,0.2-3.6-0.4S78.3,175,79.1,177.3z"/>
	<path fill="#070708" d="M0.1,22.4c0,0,3.1,22.2,3.6,23.2s2.2,0.2,3.1-1s2.6-0.5,3.2-1.4s2.8-1.6,3-1.2s6.2,1.1,6.9,0.6
		s1.2-1.1,2-0.5s4.5,1.4,3.8,1.9s-1.8,0.6-3,2.1s-1,2.1-2,2.8s-4.5,2.5-5.9,4.4s-1,3.5-1.9,3.8s0,2.5,0,3.2s1.6,2.1,0.8,2.2
		s-1.2,0.6-0.8,1.6s2.9,3,3,4.2s0.9,1.6,1.2,1.1s0.5-0.3,1.1,0.2s0.8,0.5,1.6,1.2s2.4,1,1.9,0s-0.8-3.1-0.4-3s0.4,1,1.4,0.8
		s1.6-0.8,1.9,0s0.8,3.4,1.1,1.5s2.6-2.9,0-3.1s-4.7,0.8-5.5-0.5s0-1,0.5-2.1s0.5-1,0.5-3.2s-0.5-4.8,0.5-5.1s1.5-2.2,2-1
		s0.1,2.1,1.9,3.9s2.1,3.2,3.9,3.5s2.5-0.9,4.5-1.2s6.1-1,6.9-1.5s2-1.1,3.9-0.4s2.5,1.5,3,0.1s-0.6-2-0.6-3.1s-0.6-2-0.9-0.6
		s-0.6,2-1.9,2.1s-2.2,0.9-3-0.8s-1.4-3.1,0-2.9s3.5,1.1,3.9,0.5s1-2.6,1.2-2s1.2,2.4,2.1,1.5s1.6-1.1,1-2.6s-1.8-2-1.8-3.1
		s-0.2-3.5,0.2-2.8s2.3,2.2,1.7,0.6s-1.6-2.2-3.6-3.4s-4.4-1.2-6-3s-3-1-2.9-2s1.2-1.2-0.1-1.9s-2.8,0.8-1.4-0.6s2.5-1.1,1-2.6
		s-2.6-3.2-1.9-2.8s2.9,1.2,1.8,0s-1.8-1.2-2.8-0.6s-3,1.6-3.2,1.2s-2-1.6-3.1-0.5s-2.3,2.5-2.6,1.8s-2.5-1-5.5-1s-6.5,0.9-8.5,0
		s-3.1-0.8-4.2-1.2S3.7,28.3,4.2,29s1.6,2.4,1,2s-1.9-0.2-2.1-2.8S2.4,24,1.8,23.1S-0.3,19.8,0.1,22.4z"/>
	<path fill="#070708" d="M206.3,23.5c0.6-0.3,1,0.3,1.6,0.9s1.2,0,1.1-0.9s0.9-0.4,1.1-1.1s0.4-2.1,1.1-2.8s0.6-0.5,1,0
		s2.1,0,3.6,0.8s1.1,0.5,1.1,2.8s0,1.9-0.9,3.1s-2.8,0.1-3.9,0.6s0,0-0.6-0.6s-2.4,0.2-2.4,0.7s-0.8,1.5-1.1,0s-0.9,0-1.1-1.6
		s-1.5,1.1-1.5,1.1C203.6,26.5,205.7,23.8,206.3,23.5z M212.3,8.6c0,0,2.2,0.8,3,0s0.5-0.8,1,0s0.5,1.8,1.8,3.4s1,1.9,2.1,3.9
		s1.6,3.5,2.8,3.3s1.1-0.7,0.8-1.8s-0.9-4.6-0.8-6.6s0.8-8.1,0-8.8s-2-1.9-3.8-1.9s-2.8-0.6-3.9,0.8s-1.9,2.9-2.2,4.6
		S211.3,8.4,212.3,8.6z M216.4,60.1c0,0,3,4,5.2,2.5s4.5-3.4,3.5-5.9s-1.9-4.8-4.3-4.6S211.4,55.9,216.4,60.1z"/>
</g>
<g id="highlight">
	<path fill="#E6E7E8" d="M79.8,166.2c-0.7,1.2-2-1-2-1C79.1,162.2,80.5,165.1,79.8,166.2z M83.2,164.6c0,0.4,2.4,0.1,1.8,0.6
		s-2.4,0.6-1.8,1s1.2,0.4,1.6,0.4s1.1-0.5,1.1,0s-0.2,2,0.5,1.4s1.6-0.9,2.2-1.6s1.4-1.9,0-1.8s-1.3-0.9-1.8-0.8s-1.1,0.9-1.4,0.4
		S83.1,163.4,83.2,164.6z M90.1,167c0,0.3,1.9-0.2,1.8-1S90.2,164.4,90.1,167z M93.2,166c0,0,2.8-0.3,2.1,0.2s-2.6,0.2-2.1,0.9
		s2.8,1.3,3,0.7s2.1-1.4,2.3-0.7s1.8,1.4,2.2,0.9s-0.3-1.5-0.8-1.8s-1.1-1.1-0.4-1.4s0.6-1.1,1.1-0.6s2.1,0.8,2.3,0.6
		s-0.2-0.7-0.7-0.9s-1.2,0.4-0.8-0.3s1.3-2.2,0.4-1.5s-1.1,1.1-1.9,1.1s0,0-1.2,0.4s-3-0.4-3.4,0.4S92.1,165.2,93.2,166z
		 M103.9,163.1c0,0-0.1,1.9,0.4,1.9s1.4,0.5,1.7,0s0.1-0.6-0.4-1.1S104.3,162.2,103.9,163.1z"/>
</g>
</svg>
